<svg xmlns="http://www.w3.org/2000/svg" width="93.205" height="82.26" viewBox="0 0 24.66 21.765"><path d="M201.36 38.26 180.92 2.87A5.75 5.75 0 0 0 176 0h-17.29v28.88h16v-4.55h3.73l3.91 6.77a2.7 2.7 0 0 1 0 2.74 2.75 2.75 0 0 1-2.35 1.4h-48.9a2.75 2.75 0 0 1-2.42-1.41 2.7 2.7 0 0 1 0-2.74l3.9-6.76h3.73v4.55h16V0h-17.22a5.75 5.75 0 0 0-5 2.87l-20.4 35.39a5.75 5.75 0 0 0 0 5.74l20.43 35.39a5.75 5.75 0 0 0 5 2.87h17.25V53.37h-16v4.55h-3.73l-3.91-6.77a2.7 2.7 0 0 1 0-2.74 2.75 2.75 0 0 1 2.36-1.41H180a2.75 2.75 0 0 1 2.42 1.41 2.7 2.7 0 0 1 0 2.74l-3.9 6.76h-3.73v-4.54h-16v28.88H176a5.75 5.75 0 0 0 5-2.87L201.36 44a5.75 5.75 0 0 0 0-5.74z" fill="#a7aaad" transform="matrix(.26458 0 0 .26458 -28.82 0)" data-name="Layer 1"/></svg>